HIERARCHY
ROOT Hips
{
	OFFSET 0.000000 0.000000 0.000000
	CHANNELS 6 Xposition Yposition Zposition Yrotation Xrotation Zrotation
	JOINT Chest
	{
		OFFSET 0.000000 -0.009281 11.569106
		CHANNELS 3 Yrotation Xrotation Zrotation
		JOINT Chest2
		{
			OFFSET -0.000000 0.016865 9.269641
			CHANNELS 3 Yrotation Xrotation Zrotation
			JOINT Chest3
			{
				OFFSET -0.000000 0.000001 8.374491
				CHANNELS 3 Yrotation Xrotation Zrotation
				JOINT Chest4
				{
					OFFSET -0.000000 0.000001 8.374493
					CHANNELS 3 Yrotation Xrotation Zrotation
					JOINT Neck
					{
						OFFSET -0.000000 0.000002 12.152554
						CHANNELS 3 Yrotation Xrotation Zrotation
						JOINT Head
						{
							OFFSET -0.000000 0.040101 7.802319
							CHANNELS 3 Yrotation Xrotation Zrotation
							End Site
							{
								OFFSET -0.000000 0.020947 14.853096
							}
						}
					}
					JOINT RightCollar
					{
						OFFSET 2.894404 0.000001 6.791374
						CHANNELS 3 Yrotation Xrotation Zrotation
						JOINT RightShoulder
						{
							OFFSET 13.574684 0.000001 0.000000
							CHANNELS 3 Yrotation Xrotation Zrotation
							JOINT RightElbow
							{
								OFFSET 23.923903 0.000002 0.000000
								CHANNELS 3 Yrotation Xrotation Zrotation
								JOINT RightWrist
								{
									OFFSET 19.846718 0.012767 0.000000
									CHANNELS 3 Yrotation Xrotation Zrotation
									End Site
									{
										OFFSET 14.973145 0.000001 0.000000
									}
								}
							}
						}
					}
					JOINT LeftCollar
					{
						OFFSET -2.894404 0.000001 6.791374
						CHANNELS 3 Yrotation Xrotation Zrotation
						JOINT LeftShoulder
						{
							OFFSET -13.574684 -0.000001 0.000000
							CHANNELS 3 Yrotation Xrotation Zrotation
							JOINT LeftElbow
							{
								OFFSET -23.923903 -0.000002 0.000000
								CHANNELS 3 Yrotation Xrotation Zrotation
								JOINT LeftWrist
								{
									OFFSET -19.846718 0.012763 0.000000
									CHANNELS 3 Yrotation Xrotation Zrotation
									End Site
									{
										OFFSET -14.973145 -0.000001 0.000000
									}
								}
							}
						}
					}
				}
			}
		}
	}
	JOINT RightHip
	{
		OFFSET 9.469263 0.004643 0.045487
		CHANNELS 3 Yrotation Xrotation Zrotation
		JOINT RightKnee
		{
			OFFSET 0.000000 0.002661 -40.478676
			CHANNELS 3 Yrotation Xrotation Zrotation
			JOINT RightAnkle
			{
				OFFSET 0.000000 0.049106 -35.224068
				CHANNELS 3 Yrotation Xrotation Zrotation
				JOINT RightToe
				{
					OFFSET -0.000001 12.539529 -6.151390
					CHANNELS 3 Yrotation Xrotation Zrotation
					End Site
					{
						OFFSET -0.000001 5.044994 -1.291870
					}
				}
			}
		}
	}
	JOINT LeftHip
	{
		OFFSET -9.469263 0.004641 0.045487
		CHANNELS 3 Yrotation Xrotation Zrotation
		JOINT LeftKnee
		{
			OFFSET 0.000000 0.002661 -40.478676
			CHANNELS 3 Yrotation Xrotation Zrotation
			JOINT LeftAnkle
			{
				OFFSET 0.000000 0.049106 -35.224068
				CHANNELS 3 Yrotation Xrotation Zrotation
				JOINT LeftToe
				{
					OFFSET -0.000001 12.539529 -6.151390
					CHANNELS 3 Yrotation Xrotation Zrotation
					End Site
					{
						OFFSET -0.000001 5.044994 -1.291870
					}
				}
			}
		}
	}
}
MOTION
Frames: 11
Frame Time: 0.016667
38.942013 36.043625 82.814766 -3.293370 -1.094411 -117.894639 -1.172279 -4.789075 2.655185 -0.883459 -1.815653 1.310205 -0.883458 -1.815653 1.310204 -0.658649 -1.363645 0.979948 1.529647 -12.840345 -4.793876 0.925147 12.290032 -8.478405 9.629373 4.720277 -1.740842 43.033918 -14.701731 -13.967394 -23.638979 -61.492815 83.698443 -42.024969 38.971031 51.176128 -8.042580 5.343047 -6.526887 -39.860496 -9.105493 19.477744 0.789773 -64.186225 -64.120757 28.514462 12.753746 -74.658783 -1.617532 4.782582 12.659444 -3.301051 -17.843915 2.408597 3.205143 8.412928 6.287133 -0.006561 -0.069510 2.004752 2.116239 1.912083 -9.960710 3.668694 -5.627614 -7.091422 -13.821769 -3.745344 -10.183737 -0.860203 1.120652 0.233420 
38.357941 34.885872 82.774498 -3.021230 -0.467110 -117.828577 -1.636926 -4.150363 2.677464 -0.838669 -1.837675 1.264295 -0.838668 -1.837675 1.264297 -0.625148 -1.380000 0.945621 1.499679 -12.819868 -4.772138 0.875976 12.327113 -8.450318 9.593908 4.542520 -1.826623 43.063643 -14.565611 -13.910243 -23.612845 -61.354025 83.693757 -41.913579 38.909648 51.241780 -7.983134 5.137239 -6.576737 -39.908905 -9.251002 19.373335 0.741985 -64.116584 -64.067919 28.598318 12.784068 -74.618546 -1.696321 5.218118 12.238415 -2.206799 -18.006867 -0.039162 2.720819 9.501135 7.346609 -0.310529 -0.760554 0.839898 2.248178 2.249228 -8.145421 3.674730 -5.227814 -7.693545 -11.628311 -3.482389 -10.260323 -2.712362 0.932050 0.022243 
37.957378 33.571487 82.760574 -2.970113 -0.363963 -117.862291 -1.761211 -3.964998 2.849701 -0.769449 -1.841590 1.215793 -0.769449 -1.841590 1.215795 -0.573375 -1.382732 0.909450 1.461814 -12.810395 -4.754757 0.810664 12.343170 -8.433355 9.554019 4.458005 -1.832237 43.072839 -14.325740 -13.994864 -23.912332 -61.194486 83.951310 -41.766723 38.800679 51.320447 -7.990211 5.017284 -6.620150 -39.930696 -9.558045 19.352390 0.604800 -64.057680 -63.948138 28.768357 12.895378 -74.418388 -1.290623 5.015719 11.409367 -0.838341 -18.076722 -2.150958 0.940688 10.765179 7.073126 -0.051376 -1.356827 -0.040049 2.281423 2.154173 -6.106464 3.763754 -4.656259 -9.321710 -9.375918 -2.865847 -9.293851 -4.094248 0.362842 0.025376 
37.551529 33.034416 82.638824 -3.076809 -0.478018 -117.887098 -1.793520 -4.015572 2.976071 -0.680202 -1.837973 1.192694 -0.680202 -1.837973 1.192695 -0.506522 -1.379814 0.892402 1.423385 -12.814376 -4.739689 0.744138 12.334127 -8.420448 9.523090 4.567407 -1.808902 42.980038 -14.157578 -14.134836 -24.322450 -61.189138 84.376120 -41.661897 38.772781 51.397614 -8.022908 4.965471 -6.650509 -39.989784 -9.736241 19.428191 0.249876 -64.051137 -63.570237 28.945498 12.882713 -74.132455 -1.013872 4.848525 9.406037 0.125252 -18.445097 -3.948040 -1.056697 11.652636 6.331091 0.633419 -1.394928 -0.242796 2.350968 1.855500 -4.707869 3.708185 -4.978941 -10.574046 -7.045135 -1.799816 -7.153628 -5.030429 0.025502 -0.235441 
37.329350 32.961220 82.557251 -3.108115 -0.795543 -117.922506 -1.602019 -4.073328 3.059096 -0.599190 -1.837863 1.193869 -0.599190 -1.837862 1.193870 -0.445765 -1.379575 0.893524 1.400757 -12.825519 -4.726782 0.707155 12.312640 -8.404848 9.480645 4.681998 -1.774011 42.828380 -14.137997 -14.179652 -24.644782 -61.281892 84.787195 -41.682486 38.887624 51.420427 -8.029030 4.959393 -6.615588 -40.115340 -9.688079 19.560938 -0.269205 -64.083936 -63.038780 28.984751 12.631779 -73.785345 -0.653229 4.627501 6.221679 0.999737 -18.571276 -5.589183 -3.396637 12.064769 5.647304 1.418957 -1.147948 -0.455479 2.209746 1.909233 -3.933739 3.460152 -6.590466 -9.520630 -4.154831 -0.580826 -5.510648 -5.631543 -0.123450 -0.053405 
37.221371 33.315079 82.513916 -3.064591 -0.877101 -117.784823 -1.532915 -3.969653 2.929095 -0.561563 -1.836688 1.215947 -0.561562 -1.836687 1.215949 -0.417482 -1.378640 0.910195 1.421356 -12.830605 -4.726157 0.746826 12.304445 -8.394928 9.449404 4.730702 -1.787125 42.714944 -14.366391 -14.119175 -24.548142 -61.348677 84.808027 -41.798944 39.018135 51.368009 -8.060578 5.027941 -6.621195 -40.221516 -9.481630 19.787681 -0.700904 -64.074524 -62.611723 28.803321 12.322567 -73.582379 -0.959559 4.584724 2.020506 1.973852 -18.676910 -7.990321 -5.461249 12.483642 5.648905 2.171796 -0.892271 -0.570440 1.782977 2.263132 -3.598431 2.888025 -8.464970 -5.695875 -1.176610 0.055968 -4.385544 -5.910599 0.046320 -0.058751 
37.585632 34.188549 82.696556 -3.412646 -0.699120 -117.791366 -1.845002 -4.075155 2.957415 -0.568142 -1.837763 1.252887 -0.568142 -1.837763 1.252888 -0.422304 -1.379496 0.937879 1.477009 -12.847692 -4.746041 0.845326 12.275217 -8.408995 9.431766 4.611779 -1.840310 42.691940 -14.613169 -13.954986 -24.062596 -61.439204 84.391925 -41.926365 39.095316 51.260522 -8.130056 5.127830 -6.647710 -40.269955 -9.207990 19.981850 -0.746901 -64.052339 -62.491969 28.612890 12.142084 -73.645401 -1.943554 4.200290 -2.225026 2.833387 -18.754356 -10.913148 -6.956321 12.849518 5.880527 2.722069 -0.575497 -0.650342 1.027379 2.118842 -2.225022 2.172369 -9.823829 -1.039913 1.347842 1.046422 -3.628739 -5.791720 -0.349270 0.008579 
38.108181 34.641884 82.909073 -3.794495 -0.707804 -117.891865 -1.989932 -4.260750 3.123157 -0.597183 -1.843972 1.293475 -0.597183 -1.843971 1.293471 -0.443947 -1.384251 0.968221 1.541394 -12.882860 -4.786147 0.953145 12.212155 -8.457180 9.400566 4.309408 -1.878940 42.755372 -14.639594 -13.769034 -23.383052 -61.589728 83.766847 -42.022998 39.129054 51.153257 -8.134197 5.113029 -6.630215 -40.329723 -8.928363 19.978016 -0.401080 -64.020128 -62.693043 28.409701 12.092247 -73.817529 -2.611094 3.344080 -6.121111 3.779890 -18.486819 -13.472116 -8.439317 12.874975 5.331692 2.941051 -0.066232 -0.800454 -0.245333 1.404486 0.553474 1.508977 -10.157174 2.837500 3.924349 1.503594 -2.792014 -5.141134 -0.534931 0.300092 
39.067104 35.275742 83.115044 -4.091891 -0.810836 -117.975385 -2.010084 -4.405908 3.317792 -0.622335 -1.850781 1.335013 -0.622334 -1.850781 1.335014 -0.462669 -1.389455 0.999291 1.590711 -12.925496 -4.841308 1.026628 12.133816 -8.539929 9.382267 4.135715 -1.880627 42.844062 -14.598025 -13.800395 -22.827049 -61.721756 83.303480 -42.083029 39.148886 51.086168 -8.100003 5.074900 -6.631442 -40.404991 -8.828147 19.891234 -0.006975 -63.920578 -62.972493 28.241511 12.022887 -73.925057 -3.353022 2.286043 -9.613753 4.761471 -18.040413 -15.526434 -9.468932 12.563752 4.099128 2.920103 0.515074 -0.849486 -1.139997 0.379971 4.284079 0.952346 -9.860427 5.489818 5.848108 1.644438 -1.441745 -4.315322 -0.395989 0.464682 
40.137520 35.691257 83.293587 -4.231751 -0.981150 -117.958747 -1.906096 -4.450004 3.429508 -0.629034 -1.854858 1.366190 -0.629034 -1.854859 1.366192 -0.467589 -1.392560 1.022646 1.609937 -12.974702 -4.891453 1.045505 12.041729 -8.625279 9.368212 4.063841 -1.830980 42.906627 -14.498765 -13.960743 -22.688907 -61.785714 83.254822 -42.098680 39.172125 51.069263 -8.057504 5.002197 -6.634143 -40.434156 -8.901184 19.774031 0.109361 -63.805278 -63.091871 28.178598 11.860950 -73.862069 -3.841161 1.245397 -12.558356 5.548952 -17.465120 -17.475123 -9.909076 11.862870 2.992620 2.608313 1.218583 -0.863687 -1.967388 -0.768660 8.218658 0.577477 -9.148962 7.653673 7.192198 1.658661 -0.066831 -3.364906 -0.054200 0.639649 
41.132145 35.780334 83.426346 -4.227214 -1.217902 -117.806720 -1.695439 -4.413987 3.415889 -0.616057 -1.857983 1.373005 -0.616057 -1.857983 1.373007 -0.457830 -1.394881 1.027794 1.602618 -13.023421 -4.923935 1.021286 11.949660 -8.688019 9.312286 3.925973 -1.758363 42.923456 -14.313957 -14.027303 -22.916386 -61.776527 83.527504 -42.059960 39.155487 51.087421 -8.043017 4.984308 -6.637952 -40.356996 -9.067164 19.745667 -0.095765 -63.818412 -63.044579 28.199887 11.655057 -73.593629 -4.414634 0.416328 -14.651975 6.084126 -16.915614 -19.063992 -9.339504 10.651122 2.195919 1.947573 1.935453 -0.758729 -2.345074 -1.866760 11.719011 0.262049 -8.351490 9.410979 7.750755 1.790317 1.136885 -2.417970 0.227969 0.738179 
